<?xml version="1.0" ?><svg data-name="Layer 2" id="Layer_2" viewBox="0 0 250 250" xmlns="http://www.w3.org/2000/svg"><title/><path d="M44.61,114.09H77.07c6.3,0,11.57-1.25,15.67-3.7,4.56-2.75,6.88-7.51,6.88-14.13,0-9.26-4.91-13.24-9-15l-.21-.07A54.09,54.09,0,0,0,73.67,79H44.61a3,3,0,0,0-3,3v29.06A3,3,0,0,0,44.61,114.09Zm3-29.06H73.67A48.76,48.76,0,0,1,88.4,86.9c2.27,1,5.22,3,5.22,9.36,0,4.44-1.3,7.38-4,9-3.15,1.88-7.38,2.84-12.58,2.84H47.61Zm44.45,47.32c-3.59-1.6-8.49-2.43-14.59-2.47H44.61a3,3,0,0,0-3,3V168a3,3,0,0,0,3,3H77c6.33,0,11.18-.85,14.83-2.62h0c6.93-3.42,10.45-9.85,10.45-19.13C102.33,141.23,98.78,135.39,92.06,132.35ZM89.24,163c-2.78,1.34-6.89,2-12.21,2H47.61V135.88H77.45c5.24,0,9.34.69,12.15,2,4.59,2.07,6.73,5.7,6.73,11.4C96.33,156.12,94,160.62,89.24,163Zm24.17-43.14a30,30,0,0,0,5.94-5.2c4.56-5.4,6.88-12.57,6.88-21.33a36.35,36.35,0,0,0-6.71-21.9c-7.36-9.86-19.79-15-37-15.25H18a3,3,0,0,0-3,3V190.84a3,3,0,0,0,3,3H78.15A98,98,0,0,0,97.62,192a40.3,40.3,0,0,0,16.25-7.14,39.5,39.5,0,0,0,10.19-11.15,41.14,41.14,0,0,0,6.43-22.62c0-8.11-1.91-15.15-5.69-20.94A31.45,31.45,0,0,0,113.41,119.84ZM119,170.53a33.77,33.77,0,0,1-8.7,9.53,34.31,34.31,0,0,1-13.87,6.07,91.84,91.84,0,0,1-18.26,1.71H21V62.16H82.46c15.22.23,26.07,4.55,32.23,12.81,3.72,5.12,5.54,11.12,5.54,18.34s-1.84,13.17-5.45,17.45a29.87,29.87,0,0,1-9.26,6.75,3,3,0,0,0,.33,5.5c6.22,2.24,10.78,5.67,13.93,10.44s4.71,10.73,4.71,17.65A35.29,35.29,0,0,1,119,170.53ZM156,81.36h57.2a3,3,0,0,0,3-3V62a3,3,0,0,0-3-3H156a3,3,0,0,0-3,3V78.36A3,3,0,0,0,156,81.36ZM159,65h51.2V75.36H159Zm43.21,46.51A26,26,0,0,0,185,105.54c-7.42,0-13.32,2.19-17.54,6.47s-6.68,9.78-7.71,16.73a3,3,0,0,0,3,3.44h44.49a3,3,0,0,0,3-3.21C209.66,121.44,207,115.57,202.25,111.48Zm-35.88,14.7a21.68,21.68,0,0,1,5.36-10c3.05-3.1,7.51-4.67,13.27-4.68a19.85,19.85,0,0,1,13.36,4.51,16.77,16.77,0,0,1,5.44,10.13Zm69.71,0a50.2,50.2,0,0,0-8.37-21.36,42.91,42.91,0,0,0-18.3-15.45,59.59,59.59,0,0,0-24.32-4.83H185c-15.17,0-27.75,4.84-37.41,14.38s-14.48,23.33-14.48,40.95c0,18.9,5.46,32.81,16.21,41.33a57.37,57.37,0,0,0,36.64,12.63c16.7,0,29.93-5.1,39.32-15.13,6.09-6.43,9.58-12.93,10.35-19.3a3,3,0,0,0-3-3.37H206.27a3,3,0,0,0-2.64,1.59,18.7,18.7,0,0,1-4.56,5.78c-3.11,2.51-7.29,3.78-12.43,3.78a23.43,23.43,0,0,1-12.7-3.24c-4.9-2.95-7.74-7.86-8.63-15H234a3,3,0,0,0,3-3C237.09,137.24,236.8,130.75,236.08,126.19Zm-74,16.8a3,3,0,0,0-2.17.92,3,3,0,0,0-.83,2.21c.48,10.82,4.45,18.55,11.76,22.95a29.5,29.5,0,0,0,15.82,4.12c6.55,0,12-1.72,16.19-5.11a23,23,0,0,0,5.18-6h20.9c-1.27,4.06-4,8.27-8,12.56-8.22,8.78-20,13.24-34.95,13.24A51.53,51.53,0,0,1,153,176.51c-9.25-7.33-13.94-19.65-13.94-36.63,0-16,4.28-28.31,12.7-36.69,8.61-8.5,19.46-12.64,33.19-12.64h.11A53.66,53.66,0,0,1,207,94.86a37.11,37.11,0,0,1,15.8,13.39,44.33,44.33,0,0,1,7.37,18.87h0A108.23,108.23,0,0,1,231,143Z"/></svg>