<?xml version="1.0" ?><svg fill="none" height="24" viewBox="0 0 24 24" width="24" xmlns="http://www.w3.org/2000/svg"><path clip-rule="evenodd" d="M1.5 4C1.5 3.72386 1.72386 3.5 2 3.5H22C22.2761 3.5 22.5 3.72386 22.5 4V20C22.5 20.2761 22.2761 20.5 22 20.5H2C1.72386 20.5 1.5 20.2761 1.5 20V4ZM2.5 4.5V19.5H21.5V4.5H2.5Z" fill="black" fill-rule="evenodd"/><path clip-rule="evenodd" d="M1.52821 3.8345C1.5985 3.63412 1.78768 3.5 2.00003 3.5H22C22.2124 3.5 22.4016 3.63412 22.4718 3.8345C22.5421 4.03487 22.4782 4.25778 22.3124 4.39043L12.3124 12.3904C12.1298 12.5365 11.8703 12.5365 11.6877 12.3904L1.68768 4.39043C1.52187 4.25778 1.45793 4.03487 1.52821 3.8345ZM3.42542 4.5L12 11.3597L20.5746 4.5H3.42542Z" fill="black" fill-rule="evenodd"/></svg>