<?xml version="1.0" ?><svg data-name="Layer 2" id="Layer_2" viewBox="0 0 250 250" xmlns="http://www.w3.org/2000/svg"><title/><path d="M44.34,20.23C27.63,20.23,15.5,31.47,15.5,47S27.38,73.7,43.74,73.7H44c16.71,0,28.83-11.25,28.83-26.81C72.52,31.19,60.79,20.23,44.34,20.23ZM44,67.7h-.3C30.64,67.7,21.5,59.17,21.5,47s9.39-20.73,22.84-20.73c13.2,0,22.25,8.36,22.53,20.73C66.87,59.17,57.48,67.7,44,67.7ZM60.86,86.43H27.21a9,9,0,0,0-9,9V220.77a9,9,0,0,0,9,9H60.86a9,9,0,0,0,9-9V95.43A9,9,0,0,0,60.86,86.43Zm3,134.34a3,3,0,0,1-3,3H27.21a3,3,0,0,1-3-3V95.43a3,3,0,0,1,3-3H60.86a3,3,0,0,1,3,3ZM218.69,99.26c-9.69-10.5-23.43-16.05-39.76-16.05-19.38,0-30.85,8.16-38.15,16.62v-4.4a9,9,0,0,0-9-9H98.25a9,9,0,0,0-9,9.12c.32,24.06,0,101.9-.11,125.18a9,9,0,0,0,9,9h33.64a9,9,0,0,0,9-9v-70.7c0-4.61.42-7.88,1.3-10,1.79-4.46,7.39-14.82,20.64-14.82s20.13,9.44,20.13,28.05v67.48a9,9,0,0,0,9,9H225.5a9,9,0,0,0,9-9V148C234.5,127,229.18,110.64,218.69,99.26Zm9.81,121.51a3,3,0,0,1-3,3H191.85a3,3,0,0,1-3-3V153.29c0-22-9.28-34-26.13-34-11.73,0-21.53,7-26.2,18.56-1.19,2.89-1.74,6.79-1.74,12.27v70.7a3,3,0,0,1-3,3H98.14a3,3,0,0,1-3-3c.11-23.3.43-101.18.11-125.29a3,3,0,0,1,3-3h33.53a3,3,0,0,1,3,3V108a3,3,0,0,0,2.7,4.3h.3a3,3,0,0,0,2.95-2.47c6.47-9.77,16.72-20.66,38.2-20.66,14.61,0,26.83,4.88,35.35,14.12,9.43,10.23,14.22,25.27,14.22,44.69Z"/></svg>